# xmcd
#
# Track frame offsets: 
#        151
#        27262
#        56309
#        80629
#        106326
#        129713
#        146355
#        168412
#        189450
#        218204
#        221387
#        251605
#
# Disc length: 3716 seconds
#
# Revision: 0
# Processed by: cddbd v1.5.2PL0 Copyright (c) Steve Scherf et al.
# Submitted via: ExactAudioCopy v0.99pb4
#
DISCID=a70e820c
DTITLE=Eightball and MJG - Memphis Under World (Chopped and Screwed)
DYEAR=2006
DGENRE=Chopped and Screwed
TTITLE0=Break Da Law
TTITLE1=Kick Dat AShit
TTITLE2=Pimp N My Own Rhymes
TTITLE3=Armed Robbery
TTITLE4=Whattcha Doing
TTITLE5=Playas Dream
TTITLE6=Lock'em N Da Trunk
TTITLE7=Who Got Dem Nines
TTITLE8=Got's To Be Real
TTITLE9=D.J. Black Interlude
TTITLE10=Listen To Da Lyrics
TTITLE11=Wild Boy
EXTD=
EXTT0=
EXTT1=
EXTT2=
EXTT3=
EXTT4=
EXTT5=
EXTT6=
EXTT7=
EXTT8=
EXTT9=
EXTT10=
EXTT11=
PLAYORDER=
